<svg width="55" height="55" viewBox="0 0 55 55" fill="none" xmlns="http://www.w3.org/2000/svg">
<path d="M9.16671 45.8334C7.90629 45.8334 6.81775 45.3941 5.90108 44.5156C5.02261 43.599 4.58337 42.5104 4.58337 41.25V13.75C4.58337 12.4896 5.02261 11.4202 5.90108 10.5417C6.81775 9.62502 7.90629 9.16669 9.16671 9.16669H45.8334C47.0938 9.16669 48.1632 9.62502 49.0417 10.5417C49.9584 11.4202 50.4167 12.4896 50.4167 13.75V41.25C50.4167 42.5104 49.9584 43.599 49.0417 44.5156C48.1632 45.3941 47.0938 45.8334 45.8334 45.8334H9.16671ZM27.5 29.7917L45.8334 18.3334V13.75L27.5 25.2084L9.16671 13.75V18.3334L27.5 29.7917Z" fill="#FBB39B"/>
</svg>
