<?xml version="1.0" encoding="UTF-8"?>
<svg id="Layer_1" data-name="Layer 1" xmlns="http://www.w3.org/2000/svg" viewBox="0 0 583.58 817.82">
  <defs>
    <style>
      .cls-1 {
        fill: #fab29a;
      }
    </style>
  </defs>
  <path class="cls-1" d="M69.35,71.34h514.23c-.11-29.79-5.92-58.65-38.15-68.06-1.52-.44-3.05-.83-4.58-1.17-17.14-3.77-35.1-1.32-52.49-1.32H39.97C18.93,6.64,2.73,21.74,0,44.19v730.18c2.76,22.7,20.77,40.7,43.43,43.45h25.93V71.34ZM35.35,71.84c8.01,0,14.5,6.49,14.5,14.5s-6.49,14.5-14.5,14.5-14.5-6.49-14.5-14.5,6.49-14.5,14.5-14.5ZM50.35,141.84c0,8.01-6.49,14.5-14.5,14.5s-14.5-6.49-14.5-14.5,6.49-14.5,14.5-14.5,14.5,6.49,14.5,14.5ZM35.85,772.34c-8.01,0-14.5-6.49-14.5-14.5s6.49-14.5,14.5-14.5,14.5,6.49,14.5,14.5-6.49,14.5-14.5,14.5ZM35.85,716.34c-8.01,0-14.5-6.49-14.5-14.5s6.49-14.5,14.5-14.5,14.5,6.49,14.5,14.5-6.49,14.5-14.5,14.5ZM35.85,660.34c-8.01,0-14.5-6.49-14.5-14.5s6.49-14.5,14.5-14.5,14.5,6.49,14.5,14.5-6.49,14.5-14.5,14.5ZM35.85,604.34c-8.01,0-14.5-6.49-14.5-14.5s6.49-14.5,14.5-14.5,14.5,6.49,14.5,14.5-6.49,14.5-14.5,14.5ZM35.85,548.34c-8.01,0-14.5-6.49-14.5-14.5s6.49-14.5,14.5-14.5,14.5,6.49,14.5,14.5-6.49,14.5-14.5,14.5ZM35.85,492.34c-8.01,0-14.5-6.49-14.5-14.5s6.49-14.5,14.5-14.5,14.5,6.49,14.5,14.5-6.49,14.5-14.5,14.5ZM35.85,436.34c-8.01,0-14.5-6.49-14.5-14.5s6.49-14.5,14.5-14.5,14.5,6.49,14.5,14.5-6.49,14.5-14.5,14.5ZM35.85,380.34c-8.01,0-14.5-6.49-14.5-14.5s6.49-14.5,14.5-14.5,14.5,6.49,14.5,14.5-6.49,14.5-14.5,14.5ZM35.85,324.34c-8.01,0-14.5-6.49-14.5-14.5s6.49-14.5,14.5-14.5,14.5,6.49,14.5,14.5-6.49,14.5-14.5,14.5ZM35.85,268.34c-8.01,0-14.5-6.49-14.5-14.5s6.49-14.5,14.5-14.5,14.5,6.49,14.5,14.5-6.49,14.5-14.5,14.5ZM35.85,212.34c-8.01,0-14.5-6.49-14.5-14.5s6.49-14.5,14.5-14.5,14.5,6.49,14.5,14.5-6.49,14.5-14.5,14.5Z"/>
</svg>